<?xml version="1.0" encoding="utf-8"?>
<!-- Generator: Adobe Illustrator 26.0.3, SVG Export Plug-In . SVG Version: 6.00 Build 0)  -->
<svg version="1.1" id="Layer_1" xmlns="http://www.w3.org/2000/svg" xmlns:xlink="http://www.w3.org/1999/xlink" x="0px" y="0px"
	 viewBox="0 0 2463.55 486" style="enable-background:new 0 0 2463.55 486;" xml:space="preserve">
<g>
	<path d="M135,381.5c-25,0-47.75-6.08-68.25-18.25c-20.5-12.16-36.75-28.5-48.75-49S0,270.84,0,245.5
		c0-25.33,6.08-48.25,18.25-68.75C30.41,156.25,46.91,140,67.75,128c20.83-12,44.08-18,69.75-18c12.33,0,24.16,1.5,35.5,4.5
		c11.33,3,22,7.34,32,13V28l81-12.5V378h-80v-19.5C185,373.84,161.33,381.5,135,381.5z M149,312.5c11.33,0,21.66-1.75,31-5.25
		c9.33-3.5,17.66-8.75,25-15.75V199c-7-6.66-15.34-11.75-25-15.25c-9.67-3.5-20-5.25-31-5.25c-13,0-24.75,2.92-35.25,8.75
		c-10.5,5.84-18.84,13.84-25,24c-6.17,10.17-9.25,21.59-9.25,34.25c0,12.67,3.08,24.09,9.25,34.25c6.16,10.17,14.5,18.17,25,24
		C124.25,309.59,136,312.5,149,312.5z"/>
	<path d="M304.5,485c-7,0-14.33-0.5-22-1.5c-7.66-1-13.83-2.17-18.5-3.5v-61c6.67,1.33,14.5,2,23.5,2c9.66,0,16.83-1.92,21.5-5.75
		c4.66-3.84,7-9.92,7-18.25V194.5c0-44.74,36.26-81,81-81h0v288c0,26.33-8,46.83-24,61.5C357,477.66,334.16,485,304.5,485z
		 M356.5,89c-12.34,0-22.84-4.33-31.5-13c-8.67-8.66-13-19.16-13-31.5c0-12.33,4.33-22.83,13-31.5c8.66-8.66,19.16-13,31.5-13
		c12.33,0,22.83,4.34,31.5,13c8.66,8.67,13,19.17,13,31.5c0,12.34-4.34,22.84-13,31.5C379.33,84.67,368.83,89,356.5,89z"/>
	<path d="M467.49,89c-12.34,0-22.84-4.33-31.5-13c-8.67-8.66-13-19.16-13-31.5c0-12.33,4.33-22.83,13-31.5
		c8.66-8.66,19.16-13,31.5-13c12.33,0,22.83,4.34,31.5,13c8.66,8.67,13,19.17,13,31.5c0,12.34-4.34,22.84-13,31.5
		C490.32,84.67,479.82,89,467.49,89z M426.99,378V194.5c0-44.74,36.26-81,81-81h0V297C507.99,341.74,471.73,378,426.99,378
		L426.99,378z"/>
	<path d="M672.99,485c-21.34,0-41.59-2-60.75-6c-19.17-4-36.59-9.67-52.25-17l27-63c14.33,6.66,28.5,11.66,42.5,15
		c14,3.33,28,5,42,5c19,0,33.33-3.84,43-11.5c9.66-7.67,14.5-19.17,14.5-34.5v-15c-20.67,14-43.5,21-68.5,21s-47.67-6-68-18
		c-20.34-12-36.5-28.25-48.5-48.75s-18-43.25-18-68.25s6.08-47.66,18.25-68c12.16-20.33,28.66-36.41,49.5-48.25
		c20.83-11.83,44.08-17.75,69.75-17.75c12,0,23.66,1.5,35,4.5c11.33,3,21.83,7.34,31.5,13v-14h80V374
		c0,35.66-11.75,63.08-35.25,82.25C751.24,475.41,717.32,485,672.99,485z M674.49,311c11,0,21.08-1.66,30.25-5
		c9.16-3.33,17.25-8.16,24.25-14.5V198c-7-6-15.09-10.75-24.25-14.25c-9.17-3.5-19.09-5.25-29.75-5.25c-13,0-24.75,2.92-35.25,8.75
		c-10.5,5.84-18.84,13.67-25,23.5c-6.17,9.84-9.25,20.92-9.25,33.25c0,12.67,3,24.09,9,34.25c6,10.17,14.25,18.17,24.75,24
		C649.74,308.09,661.49,311,674.49,311z"/>
	<path d="M827.49,378v-56.5l123-140.5h-122v-67.5h227V170l-123.5,140.5h127.5V378H827.49z"/>
	<path d="M1113.48,486c-6.34,0-12.5-0.25-18.5-0.75s-11-1.25-15-2.25v-69c6.66,1.33,15,2,25,2c26,0,43.5-11.34,52.5-34v-0.5
		l-101.5-268h41.16c28.96,0,54.76,18.28,64.36,45.61L1203.98,280l50.67-124.07c10.48-25.66,35.44-42.43,63.16-42.43h41.67
		l-118.5,278c-9.67,23-20.34,41.41-32,55.25c-11.67,13.83-25.17,23.83-40.5,30C1153.15,482.91,1134.81,486,1113.48,486z"/>
	<path d="M1413.23,299.49c-14.65,0-27.26-5.3-37.85-15.89c-10.6-10.59-15.89-23.21-15.89-37.85c0-14.64,5.29-27.25,15.89-37.85
		c10.59-10.59,23.21-15.89,37.85-15.89c14.64,0,27.25,5.3,37.85,15.89c10.59,10.6,15.89,23.21,15.89,37.85
		c0,14.65-5.3,27.26-15.89,37.85C1440.48,294.19,1427.86,299.49,1413.23,299.49z"/>
	<path d="M1642.57,383c-26.34,0-50.09-6-71.25-18c-21.17-12-37.92-28.41-50.25-49.25c-12.34-20.83-18.5-44.08-18.5-69.75
		c0-26,6.16-49.33,18.5-70c12.33-20.66,29.08-37.08,50.25-49.25c21.16-12.16,44.91-18.25,71.25-18.25c21.66,0,42.33,4.25,62,12.75
		c19.66,8.5,36.33,20.59,50,36.25l-17.84,18.56c-15.57,16.2-39.83,19.99-59.87,9.84c-0.1-0.05-0.19-0.1-0.29-0.15
		c-9.67-4.83-20.34-7.25-32-7.25c-11.67,0-22.17,2.92-31.5,8.75c-9.34,5.84-16.67,13.84-22,24c-5.34,10.17-8,21.75-8,34.75
		c0,12.67,2.75,24.09,8.25,34.25c5.5,10.17,13.08,18.17,22.75,24c9.66,5.84,20.5,8.75,32.5,8.75c11,0,21.16-2.33,30.5-7
		c0.09-0.05,0.19-0.09,0.28-0.14c18.78-9.5,41.5-5.96,56.07,9.21l18.65,19.43c-13.34,15.34-29.67,27.25-49,35.75
		C1683.73,378.75,1663.57,383,1642.57,383z"/>
	<path d="M1888.06,383c-27,0-51.34-6.08-73-18.25c-21.67-12.16-38.84-28.58-51.5-49.25c-12.67-20.66-19-43.83-19-69.5
		c0-25.66,6.33-48.91,19-69.75c12.66-20.83,29.83-37.33,51.5-49.5c21.66-12.16,46-18.25,73-18.25s51.33,6.09,73,18.25
		c21.66,12.17,38.83,28.67,51.5,49.5c12.66,20.84,19,44.09,19,69.75c0,25.67-6.34,48.84-19,69.5
		c-12.67,20.67-29.84,37.09-51.5,49.25C1939.39,376.92,1915.06,383,1888.06,383z M1888.06,313c12.33,0,23.33-3,33-9
		c9.66-6,17.33-14.08,23-24.25c5.66-10.16,8.5-21.41,8.5-33.75c0-12.66-2.84-24.08-8.5-34.25c-5.67-10.16-13.42-18.25-23.25-24.25
		c-9.84-6-20.75-9-32.75-9s-22.92,3-32.75,9c-9.84,6-17.59,14.09-23.25,24.25c-5.67,10.17-8.5,21.59-8.5,34.25
		c0,12.34,2.83,23.59,8.5,33.75c5.66,10.17,13.41,18.25,23.25,24.25C1865.14,310,1876.06,313,1888.06,313z"/>
	<path d="M2049.55,378V113.5h64c9.39,0,17,7.61,17,17v0c18.66-14.66,40.66-22,66-22c16.66,0,31.66,3.17,45,9.5
		c13.33,6.34,24.5,15.34,33.5,27c10.66-11.66,23.33-20.66,38-27c14.66-6.33,30.66-9.5,48-9.5c20,0,37.66,4.5,53,13.5
		c15.33,9,27.41,21.5,36.25,37.5c8.83,16,13.25,34.5,13.25,55.5v163h0c-44.73,0-81-36.26-81-81v-71c0-14.66-3.92-26.33-11.75-35
		c-7.84-8.66-18.25-13-31.25-13c-9,0-17.17,1.67-24.5,5c-7.34,3.34-13.67,8.34-19,15c0.33,2.67,0.58,5.42,0.75,8.25
		c0.16,2.84,0.25,5.75,0.25,8.75v163h0c-44.73,0-81-36.26-81-81v-71c0-14.66-3.92-26.33-11.75-35c-7.84-8.66-18.25-13-31.25-13
		c-9,0-17.09,1.59-24.25,4.75c-7.17,3.17-13.25,7.92-18.25,14.25v100C2130.55,341.74,2094.29,378,2049.55,378L2049.55,378z"/>
</g>
</svg>
