<?xml version="1.0" encoding="utf-8"?>
<!-- Generator: Adobe Illustrator 26.0.3, SVG Export Plug-In . SVG Version: 6.00 Build 0)  -->
<svg version="1.1" id="Layer_1" xmlns="http://www.w3.org/2000/svg" xmlns:xlink="http://www.w3.org/1999/xlink" x="0px" y="0px"
	 viewBox="0 0 1500 1500" style="enable-background:new 0 0 1500 1500;" xml:space="preserve">
<path d="M1499.5,585.05c-0.61-65.07-1.84-93.85-4.09-144.23c-3.57-80.11-16.33-134.19-34.7-182.15
	c-18.87-50-48.47-95.4-86.73-132.65c-37.25-38.26-82.65-67.86-132.65-86.73c-47.96-18.37-102.55-31.13-182.15-34.7
	C979.08,1.02,953.57,0,750,0S520.92,1.02,440.82,4.59c-80.11,3.57-134.19,16.33-182.15,34.7c-50,18.87-95.4,48.47-132.65,86.73
	c-38.26,37.25-67.86,82.65-86.73,132.65C20.92,306.63,8.16,361.22,4.59,440.82C1.02,520.92,0,546.43,0,750s1.02,229.08,4.59,309.18
	c3.57,80.11,16.33,134.7,34.7,182.15c18.87,50,48.47,95.4,86.73,132.65c37.25,38.26,82.65,67.86,132.65,86.73
	c47.96,18.37,102.55,31.13,182.15,34.7c80.1,3.57,105.61,4.59,309.18,4.59s229.08-1.02,309.18-4.59
	c80.11-3.57,134.7-16.33,182.15-34.7c101.02-38.77,180.61-118.87,219.38-219.38c18.37-47.96,31.13-102.55,34.7-182.15
	c2.25-50.37,3.48-79.16,4.09-144.22c0.36-38.39,0.5-89.42,0.5-164.96S1499.86,623.44,1499.5,585.05z M913.38,1248.97
	c-25.62,5.12-35.23-10.9-35.23-24.35c0-17.31,0.64-72.4,0.64-140.97c0-48.05-16.03-78.81-34.6-94.83
	c114.05-12.81,233.87-56.38,233.87-253.09c0-56.38-19.86-101.88-52.55-137.75c5.13-12.82,23.07-65.36-5.12-135.84
	c0,0-42.94-14.1-140.97,52.53c-41-11.53-84.57-17.29-128.15-17.29c-43.57,0-87.14,5.76-128.14,17.29
	c-98.04-65.99-140.96-52.53-140.96-52.53c-28.2,70.48-10.26,123.02-5.13,135.84c-32.68,35.87-52.54,82.01-52.54,137.75
	c0,196.07,119.18,240.28,233.23,253.09c-14.73,12.82-28.19,35.25-32.68,68.57c-29.47,13.45-103.16,35.23-149.29-42.3
	c-9.61-15.37-38.45-53.18-78.82-52.53c-42.92,0.64-17.29,24.35,0.65,33.96c21.79,12.17,46.77,57.66,52.54,72.39
	c10.26,28.84,43.57,83.94,172.36,60.23c0,42.94,0.64,83.31,0.64,95.48c0,13.45-9.61,28.83-35.24,24.35
	c-203.76-67.92-350.48-259.5-350.48-486.33c0-283.2,229.38-512.59,512.59-512.59c283.2,0,512.59,229.39,512.59,512.59
	C1262.59,988.82,1115.85,1181.05,913.38,1248.97z"/>
</svg>
