<?xml version="1.0" encoding="utf-8"?>
<!-- Generator: Adobe Illustrator 26.0.3, SVG Export Plug-In . SVG Version: 6.00 Build 0)  -->
<svg version="1.1" id="Layer_1" xmlns="http://www.w3.org/2000/svg" xmlns:xlink="http://www.w3.org/1999/xlink" x="0px" y="0px"
	 viewBox="0 0 1499.5 1500" style="enable-background:new 0 0 1499.5 1500;" xml:space="preserve">
<path d="M1495.41,440.82c-3.57-80.11-16.33-134.19-34.7-182.15c-18.87-50-48.47-95.4-86.73-132.65
	c-37.25-38.26-82.65-67.86-132.65-86.73c-47.96-18.37-102.55-31.13-182.15-34.7C979.08,1.02,953.57,0,750,0S520.92,1.02,440.82,4.59
	c-80.11,3.57-134.19,16.33-182.15,34.7c-50,18.87-95.4,48.47-132.65,86.73c-38.26,37.25-67.86,82.65-86.73,132.65
	C20.92,306.63,8.16,361.22,4.59,440.82C1.02,520.92,0,546.43,0,750s1.02,229.08,4.59,309.18c3.57,80.11,16.33,134.7,34.7,182.15
	c18.87,50,48.47,95.4,86.73,132.65c37.25,38.26,82.65,67.86,132.65,86.73c47.96,18.37,102.55,31.13,182.15,34.7
	c80.1,3.57,105.61,4.59,309.18,4.59s229.08-1.02,309.18-4.59c80.11-3.57,134.7-16.33,182.15-34.7
	c101.02-38.77,180.61-118.87,219.38-219.38c18.37-47.96,31.13-102.55,34.7-182.15c2.25-50.37,3.48-79.16,4.09-144.22V585.05
	C1498.89,519.98,1497.66,491.2,1495.41,440.82z M476.56,1244.12h-187.5v-687.5h187.5V1244.12z M382.81,477.37
	c-60.38,0-109.37-49.37-109.37-110.25c0-60.87,48.99-110.25,109.37-110.25c60.38,0,109.38,49.38,109.38,110.25
	C492.19,428,443.25,477.37,382.81,477.37z M1226.56,1244.12h-187.5V893.87c0-210.5-250-194.56-250,0v350.25h-187.5v-687.5h187.5
	v110.32c87.25-161.63,437.5-173.57,437.5,154.75V1244.12z"/>
</svg>
