<?xml version="1.0" encoding="utf-8"?>
<!-- Generator: Adobe Illustrator 26.0.3, SVG Export Plug-In . SVG Version: 6.00 Build 0)  -->
<svg version="1.1" id="Layer_1" xmlns="http://www.w3.org/2000/svg" xmlns:xlink="http://www.w3.org/1999/xlink" x="0px" y="0px"
	 viewBox="0 0 1500 1500" style="enable-background:new 0 0 1500 1500;" xml:space="preserve">
<polygon points="578.96,768.21 328.84,989.29 328.84,547.01 "/>
<path d="M856.47,825.38l271.59,240.03c-4.83,1.3-9.87,1.96-14.94,1.96H386.88c-5.07,0-10.1-0.66-14.92-1.96l271.7-240.04
	l20.52,18.11c23.88,21.03,54.35,32.61,85.82,32.61c31.56,0,62.09-11.58,85.97-32.62L856.47,825.38z"/>
<path d="M719.91,778.55L346.98,448.79c10.98-10.58,24.74-16.17,39.9-16.17h726.24c15.14,0,29.32,5.78,40.06,16.3l-373.1,329.64
	c-8.4,7.47-18.8,11.41-30.08,11.41C738.84,789.97,728.42,786.02,719.91,778.55z"/>
<polygon points="921.05,768.35 1171.17,547.14 1171.17,989.29 "/>
<path d="M1499.5,585.05c-0.61-65.07-1.84-93.85-4.09-144.23c-3.57-80.11-16.33-134.19-34.7-182.15
	c-18.87-50-48.47-95.4-86.73-132.65c-37.25-38.26-82.65-67.86-132.65-86.73c-47.96-18.37-102.55-31.13-182.15-34.7
	C979.08,1.02,953.57,0,750,0S520.92,1.02,440.82,4.59c-80.11,3.57-134.19,16.33-182.15,34.7c-50,18.87-95.4,48.47-132.65,86.73
	c-38.26,37.25-67.86,82.65-86.73,132.65C20.92,306.63,8.16,361.22,4.59,440.82C1.02,520.92,0,546.43,0,750s1.02,229.08,4.59,309.18
	c3.57,80.11,16.33,134.7,34.7,182.15c18.87,50,48.47,95.4,86.73,132.65c37.25,38.26,82.65,67.86,132.65,86.73
	c47.96,18.37,102.55,31.13,182.15,34.7c80.1,3.57,105.61,4.59,309.18,4.59s229.08-1.02,309.18-4.59
	c80.11-3.57,134.7-16.33,182.15-34.7c101.02-38.77,180.61-118.87,219.38-219.38c18.37-47.96,31.13-102.55,34.7-182.15
	c2.25-50.37,3.48-79.16,4.09-144.22c0.36-38.39,0.5-89.42,0.5-164.96S1499.86,623.44,1499.5,585.05z M1262.59,1008.55
	c0,20.21-3.84,39.74-11.41,58.08v0.15l-0.83,1.94c-7.44,17.48-18.06,33.28-31.55,46.95c-3.55,3.6-6.93,6.7-10.32,9.47
	c-26.54,22.53-60.41,34.93-95.36,34.93H386.88c-34.76,0-68.63-12.36-95.38-34.82l-0.05-0.05c-3.46-2.94-6.71-5.97-10.23-9.52
	c-13.4-13.57-24.27-29.81-31.45-46.99c-8.2-19.1-12.36-39.33-12.36-60.14V491.46c0-9.98,0.98-19.9,2.91-29.47
	c4.61-24.14,15.22-47.04,30.71-66.21c2.9-3.71,6.14-7.35,10.17-11.43c13.69-13.89,29.67-24.81,47.51-32.47
	c18.48-7.93,38.05-11.95,58.17-11.95h726.24c20.14,0,39.72,4.02,58.21,11.95c17.89,7.67,33.87,18.6,47.49,32.47
	c4.01,4.06,7.25,7.71,10.17,11.44c15.42,19.1,26.08,41.99,30.81,66.2l0.02,0.06c1.84,9.71,2.77,19.6,2.77,29.41V1008.55z"/>
</svg>
