<?xml version="1.0" encoding="utf-8"?>
<!-- Generator: Adobe Illustrator 26.0.3, SVG Export Plug-In . SVG Version: 6.00 Build 0)  -->
<svg version="1.1" id="Layer_1" xmlns="http://www.w3.org/2000/svg" xmlns:xlink="http://www.w3.org/1999/xlink" x="0px" y="0px"
	 viewBox="0 0 1500 1500" style="enable-background:new 0 0 1500 1500;" xml:space="preserve">
<path id="instagram" d="M1495.41,440.82c-3.57-80.1-16.33-134.18-34.69-182.14c-18.88-50-48.47-95.41-86.73-132.65
	c-37.24-38.27-82.65-67.86-132.65-86.73c-47.96-18.37-102.55-31.12-182.14-34.69C979.08,1.02,953.57,0,750,0
	S520.92,1.02,440.82,4.59c-80.1,3.57-134.18,16.33-182.14,34.69c-50,18.88-95.41,48.47-132.65,86.73
	c-38.27,37.24-67.86,82.65-86.73,132.65C20.92,306.63,8.16,361.22,4.59,440.82C1.02,520.92,0,546.43,0,750s1.02,229.08,4.59,309.18
	c3.57,80.1,16.33,134.69,34.69,182.14c18.88,50,48.47,95.41,86.73,132.65c37.24,38.27,82.65,67.86,132.65,86.73
	c47.96,18.37,102.55,31.12,182.14,34.69c80.1,3.57,105.61,4.59,309.18,4.59s229.08-1.02,309.18-4.59
	c80.1-3.57,134.69-16.33,182.14-34.69c101.02-38.78,180.61-118.88,219.39-219.39c18.37-47.96,31.12-102.55,34.69-182.14
	c3.57-80.1,4.59-105.61,4.59-309.18S1498.98,520.92,1495.41,440.82z M1360.71,1053.06c-3.57,72.96-15.82,112.76-26.02,139.29
	c-25,65.31-77.04,117.35-142.35,142.35c-26.53,10.71-66.33,22.45-139.29,26.02c-79.08,4.08-102.55,4.59-303.06,4.59
	s-223.98-1.02-303.06-4.59c-72.96-3.57-112.76-15.82-139.29-26.02c-32.65-12.24-62.24-31.12-86.22-56.12
	c-25-23.98-43.88-53.57-56.12-86.22c-10.71-26.53-22.45-66.33-26.02-139.29c-3.57-79.08-4.59-102.55-4.59-303.06
	s1.02-223.98,4.59-303.06c3.57-72.96,15.82-112.76,26.02-139.29c12.24-32.65,31.12-62.24,56.12-86.22
	c23.98-25,53.57-43.88,86.22-56.12c26.53-10.2,66.33-22.45,139.29-26.02c79.08-4.08,102.55-4.59,303.06-4.59
	c200,0,223.98,1.02,303.06,4.59c72.96,3.57,112.76,15.82,139.29,26.02c32.65,12.24,62.24,31.12,86.22,56.12
	c25,23.98,43.88,53.57,56.12,86.22c10.2,26.53,22.45,66.33,26.02,139.29c4.08,79.08,4.59,102.55,4.59,303.06
	C1365.31,950,1364.29,973.98,1360.71,1053.06z M1061.91,335.61c7.94-48.95,54.07-82.2,103.02-74.25
	c48.95,7.94,82.2,54.07,74.25,103.02s-54.07,82.2-103.02,74.25C1087.21,430.69,1053.97,384.56,1061.91,335.61z M750,364.8
	c-212.76,0-385.2,172.45-385.2,385.2s172.45,385.2,385.2,385.2s385.2-172.45,385.2-385.2S962.76,364.8,750,364.8z M750,1000
	c-138.27,0-250-111.73-250-250s111.73-250,250-250s250,111.73,250,250S888.27,1000,750,1000z"/>
</svg>
